<svg width="0" height="0" class="hidden">
  <symbol fill="none" xmlns="http://www.w3.org/2000/svg" viewBox="0 0 20 20" id="phone">
    <path d="M17.41 11C17.19 11 16.96 10.93 16.74 10.88C16.2948 10.7805 15.8571 10.6501 15.43 10.49C14.9661 10.3212 14.4561 10.33 13.9983 10.5146C13.5405 10.6992 13.1671 11.0466 12.95 11.49L12.73 11.95C11.7588 11.3992 10.8616 10.7271 10.06 9.95C9.28284 9.14837 8.61078 8.25118 8.05999 7.28L8.51999 7.07C8.96335 6.85292 9.31077 6.47953 9.49538 6.02169C9.67999 5.56385 9.68876 5.05391 9.51999 4.59C9.36118 4.15903 9.2309 3.71808 9.12999 3.27C9.07999 3.05 9.03999 2.82 9.00999 2.6C8.88855 1.89562 8.51961 1.25774 7.96961 0.801239C7.41961 0.344737 6.72469 0.0996088 6.00999 0.11H2.99999C2.57724 0.109446 2.15914 0.198248 1.77311 0.370584C1.38707 0.54292 1.04182 0.794898 0.759989 1.11C0.472309 1.43365 0.258104 1.81575 0.132092 2.23004C0.00608017 2.64432 -0.028752 3.08098 0.0299888 3.51C0.573576 7.67214 2.4752 11.5387 5.43999 14.51C8.41134 17.4748 12.2779 19.3764 16.44 19.92C16.5698 19.9299 16.7002 19.9299 16.83 19.92C17.5674 19.9211 18.2794 19.6505 18.83 19.16C19.1451 18.8782 19.3971 18.5329 19.5694 18.1469C19.7417 17.7609 19.8305 17.3428 19.83 16.92V13.92C19.8246 13.229 19.5808 12.5611 19.1399 12.0291C18.699 11.4971 18.0879 11.1336 17.41 11ZM17.9 17C17.8997 17.1395 17.8701 17.2775 17.8133 17.4049C17.7565 17.5324 17.6736 17.6465 17.57 17.74C17.4604 17.8399 17.33 17.9141 17.1881 17.9573C17.0463 18.0006 16.8967 18.0117 16.75 17.99C13.0183 17.5026 9.55024 15.802 6.87999 13.15C4.20746 10.4775 2.49202 6.99737 1.99999 3.25C1.97826 3.10333 1.98943 2.95367 2.03266 2.81185C2.0759 2.67003 2.15014 2.5396 2.24999 2.43C2.34461 2.32515 2.46037 2.24154 2.58964 2.18466C2.71891 2.12778 2.85876 2.09892 2.99999 2.1H5.99999C6.23115 2.09435 6.45713 2.16898 6.63945 2.3112C6.82178 2.45341 6.94919 2.65442 6.99999 2.88C6.99999 3.15 7.08999 3.43 7.14999 3.7C7.26556 4.22386 7.41931 4.73857 7.60999 5.24L6.20999 5.9C5.96935 6.01046 5.78235 6.21185 5.68999 6.46C5.58997 6.70346 5.58997 6.97654 5.68999 7.22C7.12919 10.3028 9.60723 12.7808 12.69 14.22C12.9334 14.32 13.2065 14.32 13.45 14.22C13.6981 14.1276 13.8995 13.9406 14.01 13.7L14.64 12.3C15.1559 12.4881 15.6837 12.6418 16.22 12.76C16.48 12.82 16.76 12.87 17.03 12.91C17.2556 12.9608 17.4566 13.0882 17.5988 13.2705C17.741 13.4529 17.8156 13.6788 17.81 13.91L17.9 17ZM12 0C11.77 0 11.53 0 11.3 0C11.0348 0.0225434 10.7894 0.14952 10.6178 0.352997C10.4462 0.556474 10.3624 0.819784 10.385 1.085C10.4075 1.35022 10.5345 1.59562 10.738 1.76721C10.9415 1.93881 11.2048 2.02254 11.47 2H12C13.5913 2 15.1174 2.63214 16.2426 3.75736C17.3678 4.88258 18 6.4087 18 8C18 8.18 18 8.35 18 8.53C17.9778 8.79381 18.0612 9.05565 18.2317 9.2581C18.4023 9.46055 18.6462 9.5871 18.91 9.61H18.99C19.2403 9.61102 19.4819 9.5181 19.6671 9.34961C19.8522 9.18113 19.9675 8.94932 19.99 8.7C19.99 8.47 19.99 8.23 19.99 8C19.99 5.88 19.1485 3.84668 17.6504 2.34668C16.1523 0.846674 14.12 0.00265 12 0ZM14 8C14 8.26522 14.1053 8.51957 14.2929 8.70711C14.4804 8.89464 14.7348 9 15 9C15.2652 9 15.5196 8.89464 15.7071 8.70711C15.8946 8.51957 16 8.26522 16 8C16 6.93913 15.5786 5.92172 14.8284 5.17157C14.0783 4.42143 13.0609 4 12 4C11.7348 4 11.4804 4.10536 11.2929 4.29289C11.1053 4.48043 11 4.73478 11 5C11 5.26522 11.1053 5.51957 11.2929 5.70711C11.4804 5.89464 11.7348 6 12 6C12.5304 6 13.0391 6.21071 13.4142 6.58579C13.7893 6.96086 14 7.46957 14 8Z" fill="#ADB5BD"></path>
  </symbol>
  <symbol fill="none" xmlns="http://www.w3.org/2000/svg" viewBox="0 0 21 20" id="phone--white">
    <path d="M18.44 10.9999C18.22 10.9999 17.99 10.9299 17.77 10.8799C17.3245 10.7817 16.8866 10.6514 16.46 10.4899C15.9961 10.3211 15.4861 10.3299 15.0283 10.5145C14.5704 10.6991 14.1971 11.0465 13.98 11.4899L13.76 11.9399C12.786 11.398 11.891 10.7251 11.1 9.93987C10.3147 9.14888 9.6418 8.25387 9.09998 7.27987L9.51998 6.99987C9.96334 6.78278 10.3108 6.4094 10.4954 5.95156C10.68 5.49372 10.6888 4.98378 10.52 4.51987C10.3612 4.09229 10.2309 3.65467 10.13 3.20987C10.08 2.98987 10.04 2.75987 10.01 2.52987C9.88854 1.82549 9.5196 1.18761 8.9696 0.731107C8.4196 0.274605 7.72467 0.0294769 7.00998 0.0398681H4.00998C3.57901 0.0358215 3.15223 0.124682 2.75869 0.300399C2.36515 0.476116 2.01409 0.734564 1.72941 1.05815C1.44473 1.38174 1.23311 1.76286 1.10897 2.17558C0.98482 2.5883 0.951058 3.02293 1.00998 3.44987C1.54272 7.63925 3.45601 11.5317 6.44763 14.5125C9.43925 17.4933 13.3387 19.3924 17.53 19.9099H17.91C18.6474 19.9109 19.3594 19.6404 19.91 19.1499C20.2263 18.8669 20.4791 18.52 20.6514 18.1322C20.8238 17.7443 20.9119 17.3243 20.91 16.8999V13.8999C20.8977 13.2053 20.6448 12.5364 20.1943 12.0075C19.7439 11.4786 19.1238 11.1225 18.44 10.9999ZM18.94 16.9999C18.9398 17.1419 18.9094 17.2822 18.8508 17.4115C18.7921 17.5408 18.7066 17.6562 18.6 17.7499C18.4886 17.8469 18.358 17.9193 18.2167 17.9624C18.0754 18.0054 17.9266 18.0182 17.78 17.9999C14.0349 17.5197 10.5562 15.8064 7.89269 13.1302C5.22917 10.454 3.53239 6.96721 3.06998 3.21987C3.05406 3.07339 3.06801 2.9252 3.11098 2.78426C3.15395 2.64332 3.22505 2.51256 3.31998 2.39987C3.41369 2.2932 3.52904 2.20771 3.65836 2.14909C3.78767 2.09046 3.92799 2.06005 4.06998 2.05987H7.06998C7.30253 2.05469 7.5296 2.13075 7.71212 2.27494C7.89464 2.41913 8.02119 2.62244 8.06998 2.84987C8.10998 3.1232 8.15998 3.3932 8.21998 3.65987C8.3355 4.18701 8.48924 4.70505 8.67998 5.20987L7.27998 5.85987C7.16028 5.91479 7.0526 5.99281 6.96314 6.08946C6.87367 6.18611 6.80418 6.29948 6.75865 6.42306C6.71312 6.54664 6.69245 6.678 6.69783 6.80959C6.7032 6.94118 6.73452 7.07041 6.78998 7.18987C8.22918 10.2726 10.7072 12.7507 13.79 14.1899C14.0334 14.2899 14.3065 14.2899 14.55 14.1899C14.6747 14.1453 14.7893 14.0763 14.8871 13.9871C14.985 13.8978 15.0641 13.79 15.12 13.6699L15.74 12.2699C16.2569 12.4547 16.7846 12.6084 17.32 12.7299C17.5866 12.7899 17.8566 12.8399 18.13 12.8799C18.3574 12.9287 18.5607 13.0552 18.7049 13.2377C18.8491 13.4202 18.9252 13.6473 18.92 13.8799L18.94 16.9999Z" fill="white"></path>
  </symbol>
  <symbol fill="none" xmlns="http://www.w3.org/2000/svg" viewBox="0 0 26 26" id="tick">
    <path d="M16.0563 9.38057L10.6938 14.7556L8.63126 12.6931C8.5192 12.5622 8.3813 12.4559 8.22622 12.3809C8.07114 12.3059 7.90222 12.2637 7.73007 12.2571C7.55792 12.2504 7.38626 12.2794 7.22585 12.3423C7.06544 12.4051 6.91976 12.5004 6.79794 12.6223C6.67612 12.7441 6.5808 12.8898 6.51796 13.0502C6.45512 13.2106 6.42611 13.3822 6.43276 13.5544C6.43941 13.7265 6.48157 13.8954 6.5566 14.0505C6.63163 14.2056 6.7379 14.3435 6.86876 14.4556L9.80626 17.4056C9.92306 17.5214 10.0616 17.6131 10.2139 17.6753C10.3662 17.7375 10.5292 17.769 10.6938 17.7681C11.0217 17.7667 11.3359 17.6365 11.5688 17.4056L17.8188 11.1556C17.9359 11.0394 18.0289 10.9011 18.0924 10.7488C18.1558 10.5965 18.1885 10.4331 18.1885 10.2681C18.1885 10.1031 18.1558 9.93967 18.0924 9.78735C18.0289 9.63502 17.9359 9.49677 17.8188 9.38057C17.5846 9.14775 17.2677 9.01708 16.9375 9.01708C16.6073 9.01708 16.2905 9.14775 16.0563 9.38057ZM12.6563 0.893066C10.184 0.893066 7.76724 1.62618 5.71163 2.9997C3.65601 4.37321 2.05386 6.32545 1.10776 8.60952C0.161666 10.8936 -0.0858756 13.4069 0.39644 15.8317C0.878755 18.2565 2.06926 20.4837 3.81742 22.2319C5.56558 23.9801 7.79286 25.1706 10.2176 25.6529C12.6424 26.1352 15.1557 25.8877 17.4398 24.9416C19.7239 23.9955 21.6761 22.3933 23.0496 20.3377C24.4231 18.2821 25.1563 15.8653 25.1563 13.3931C25.1563 11.7515 24.8329 10.1261 24.2048 8.60952C23.5766 7.09295 22.6558 5.71496 21.4951 4.55423C20.3344 3.3935 18.9564 2.47276 17.4398 1.84457C15.9232 1.21639 14.2978 0.893066 12.6563 0.893066ZM12.6563 23.3931C10.6784 23.3931 8.74504 22.8066 7.10055 21.7078C5.45606 20.6089 4.17434 19.0472 3.41746 17.2199C2.66058 15.3926 2.46255 13.382 2.8484 11.4422C3.23426 9.50235 4.18666 7.72052 5.58519 6.322C6.98371 4.92347 8.76554 3.97107 10.7054 3.58521C12.6452 3.19936 14.6558 3.3974 16.4831 4.15427C18.3104 4.91115 19.8721 6.19287 20.971 7.83736C22.0698 9.48186 22.6563 11.4153 22.6563 13.3931C22.6563 16.0452 21.6027 18.5888 19.7273 20.4641C17.852 22.3395 15.3084 23.3931 12.6563 23.3931Z" fill="black"></path>
  </symbol>
  <symbol fill="none" xmlns="http://www.w3.org/2000/svg" viewBox="0 0 21 20" id="upload">
    <path d="M7.21 5.7099L9.5 3.4099V12.9999C9.5 13.2651 9.60536 13.5195 9.79289 13.707C9.98043 13.8945 10.2348 13.9999 10.5 13.9999C10.7652 13.9999 11.0196 13.8945 11.2071 13.707C11.3946 13.5195 11.5 13.2651 11.5 12.9999V3.4099L13.79 5.7099C13.883 5.80363 13.9936 5.87802 14.1154 5.92879C14.2373 5.97956 14.368 6.00569 14.5 6.00569C14.632 6.00569 14.7627 5.97956 14.8846 5.92879C15.0064 5.87802 15.117 5.80363 15.21 5.7099C15.3037 5.61693 15.3781 5.50633 15.4289 5.38447C15.4797 5.26261 15.5058 5.13191 15.5058 4.9999C15.5058 4.86788 15.4797 4.73718 15.4289 4.61532C15.3781 4.49346 15.3037 4.38286 15.21 4.2899L11.21 0.289896C11.1149 0.198856 11.0028 0.127491 10.88 0.0798963C10.6365 -0.0201217 10.3635 -0.0201217 10.12 0.0798963C9.99725 0.127491 9.8851 0.198856 9.79 0.289896L5.79 4.2899C5.69676 4.38313 5.6228 4.49383 5.57234 4.61565C5.52188 4.73747 5.49591 4.86804 5.49591 4.9999C5.49591 5.13176 5.52188 5.26232 5.57234 5.38415C5.6228 5.50597 5.69676 5.61666 5.79 5.7099C5.88324 5.80313 5.99393 5.8771 6.11575 5.92756C6.23757 5.97802 6.36814 6.00399 6.5 6.00399C6.63186 6.00399 6.76243 5.97802 6.88425 5.92756C7.00607 5.8771 7.11676 5.80313 7.21 5.7099ZM19.5 11.9999C19.2348 11.9999 18.9804 12.1053 18.7929 12.2928C18.6054 12.4803 18.5 12.7347 18.5 12.9999V16.9999C18.5 17.2651 18.3946 17.5195 18.2071 17.707C18.0196 17.8945 17.7652 17.9999 17.5 17.9999H3.5C3.23478 17.9999 2.98043 17.8945 2.79289 17.707C2.60536 17.5195 2.5 17.2651 2.5 16.9999V12.9999C2.5 12.7347 2.39464 12.4803 2.20711 12.2928C2.01957 12.1053 1.76522 11.9999 1.5 11.9999C1.23478 11.9999 0.98043 12.1053 0.792893 12.2928C0.605357 12.4803 0.5 12.7347 0.5 12.9999V16.9999C0.5 17.7955 0.816071 18.5586 1.37868 19.1212C1.94129 19.6838 2.70435 19.9999 3.5 19.9999H17.5C18.2956 19.9999 19.0587 19.6838 19.6213 19.1212C20.1839 18.5586 20.5 17.7955 20.5 16.9999V12.9999C20.5 12.7347 20.3946 12.4803 20.2071 12.2928C20.0196 12.1053 19.7652 11.9999 19.5 11.9999Z" fill="#4F4C4C"></path>
  </symbol>
  <symbol fill="none" xmlns="http://www.w3.org/2000/svg" viewBox="0 0 22 20" id="x(twitter)">
    <path d="M21.9912 1.95021C21.9913 1.77357 21.9447 1.60007 21.8559 1.44735C21.7671 1.29464 21.6395 1.16817 21.486 1.08084C21.3324 0.993502 21.1585 0.948416 20.9819 0.95017C20.8053 0.951925 20.6323 1.00046 20.4805 1.09083C19.8952 1.43921 19.265 1.70601 18.6075 1.88383C17.6685 1.07806 16.4708 0.637129 15.2335 0.641636C13.8761 0.643198 12.5724 1.17223 11.5977 2.11702C10.623 3.06181 10.0537 4.3484 10.0099 5.70512C7.33384 5.27838 4.90849 3.88164 3.19631 1.78126C3.09315 1.65609 2.9614 1.55757 2.81217 1.494C2.66295 1.43043 2.50062 1.40368 2.33889 1.41601C2.17725 1.42932 2.02128 1.4818 1.88448 1.56892C1.74768 1.65603 1.63416 1.77516 1.55373 1.91601C1.14126 2.63582 0.904361 3.44276 0.862279 4.27131C0.820198 5.09986 0.974118 5.92666 1.31154 6.68456L1.30959 6.68651C1.15794 6.77991 1.03278 6.91066 0.946095 7.06625C0.859408 7.22185 0.814089 7.39708 0.81447 7.57519C0.812634 7.72211 0.821447 7.86898 0.84084 8.01464C0.942977 9.2729 1.50062 10.4507 2.4092 11.3271C2.34756 11.4446 2.30994 11.5731 2.29854 11.7052C2.28714 11.8373 2.30218 11.9704 2.34279 12.0967C2.7389 13.3308 3.58129 14.3727 4.7051 15.0185C3.56334 15.46 2.33052 15.614 1.11525 15.4668C0.890322 15.4386 0.66248 15.4876 0.469098 15.6059C0.275716 15.7242 0.128277 15.9047 0.0509651 16.1178C-0.0263465 16.3309 -0.0289396 16.5639 0.0436109 16.7787C0.116161 16.9935 0.259548 17.1772 0.45025 17.2998C2.54034 18.646 4.97393 19.3617 7.46002 19.3613C10.2793 19.393 13.03 18.4921 15.2843 16.7988C17.5385 15.1054 19.17 12.7145 19.9248 9.99801C20.2779 8.81464 20.4582 7.58648 20.46 6.35157C20.46 6.28614 20.46 6.21876 20.459 6.15138C20.9811 5.58831 21.3856 4.92668 21.6487 4.20527C21.9118 3.48387 22.0283 2.7172 21.9912 1.95021ZM18.6846 5.16212C18.5194 5.35746 18.4358 5.60891 18.4512 5.86427C18.461 6.02927 18.46 6.19527 18.46 6.35157C18.4579 7.39511 18.305 8.43287 18.0059 9.43263C17.3894 11.744 16.015 13.7817 14.103 15.2192C12.1909 16.6568 9.8517 17.4111 7.46002 17.3613C6.6009 17.3616 5.74474 17.2606 4.90924 17.0606C5.97465 16.7172 6.97083 16.1879 7.85162 15.4971C8.01385 15.3693 8.13257 15.1945 8.19151 14.9967C8.25044 14.7988 8.2467 14.5875 8.18079 14.3918C8.11489 14.1961 7.99005 14.0257 7.8234 13.9038C7.65675 13.7819 7.45647 13.7145 7.25002 13.7109C6.41885 13.698 5.62515 13.363 5.03615 12.7764C5.18557 12.7481 5.33401 12.7129 5.48147 12.6709C5.69748 12.6094 5.88651 12.477 6.01813 12.295C6.14975 12.1131 6.21629 11.8921 6.20704 11.6677C6.1978 11.4433 6.1133 11.2285 5.96715 11.058C5.82101 10.8874 5.62173 10.7711 5.40139 10.7275C4.91893 10.6323 4.46494 10.427 4.0747 10.1277C3.68447 9.82845 3.36852 9.44321 3.15139 9.00196C3.33212 9.02662 3.514 9.04194 3.69631 9.04786C3.91289 9.05113 4.1249 8.98543 4.30169 8.86026C4.47847 8.73509 4.61086 8.55694 4.67971 8.35157C4.74569 8.14433 4.74229 7.92123 4.67004 7.7161C4.59778 7.51096 4.46061 7.33499 4.27932 7.21485C3.83947 6.92182 3.47916 6.52427 3.23068 6.0578C2.98219 5.59134 2.85328 5.07052 2.85549 4.54201C2.85549 4.47561 2.85744 4.4092 2.86135 4.34377C5.10261 6.43402 8.00967 7.66621 11.0703 7.82326C11.2248 7.82934 11.3787 7.80024 11.5203 7.73816C11.6619 7.67607 11.7875 7.58262 11.8877 7.46486C11.9869 7.34596 12.0571 7.20566 12.0929 7.05501C12.1286 6.90437 12.1289 6.74748 12.0937 6.5967C12.0366 6.35806 12.0074 6.11357 12.0068 5.86818C12.0077 5.01271 12.348 4.19254 12.9529 3.58764C13.5578 2.98274 14.378 2.64251 15.2334 2.64161C15.6736 2.64043 16.1092 2.7305 16.5127 2.90615C16.9163 3.0818 17.2791 3.3392 17.5781 3.66212C17.6935 3.7862 17.8386 3.87871 17.9998 3.93085C18.161 3.98299 18.3329 3.99303 18.499 3.96001C18.9098 3.88006 19.3147 3.7724 19.7109 3.63775C19.4407 4.19072 19.0953 4.70369 18.6846 5.16212Z" fill="white"></path>
  </symbol>
  <symbol fill="none" xmlns="http://www.w3.org/2000/svg" viewBox="0 0 12 8" id="arrow-down">
    <path d="M11 1.16994C10.8126 0.983692 10.5592 0.87915 10.295 0.87915C10.0308 0.87915 9.77737 0.983692 9.59001 1.16994L6.00001 4.70994L2.46001 1.16994C2.27265 0.983692 2.0192 0.87915 1.75501 0.87915C1.49082 0.87915 1.23737 0.983692 1.05001 1.16994C0.956281 1.26291 0.881887 1.37351 0.831118 1.49537C0.780349 1.61723 0.754211 1.74793 0.754211 1.87994C0.754211 2.01195 0.780349 2.14266 0.831118 2.26452C0.881887 2.38638 0.956281 2.49698 1.05001 2.58994L5.29001 6.82994C5.38297 6.92367 5.49357 6.99806 5.61543 7.04883C5.73729 7.0996 5.868 7.12574 6.00001 7.12574C6.13202 7.12574 6.26273 7.0996 6.38459 7.04883C6.50645 6.99806 6.61705 6.92367 6.71001 6.82994L11 2.58994C11.0937 2.49698 11.1681 2.38638 11.2189 2.26452C11.2697 2.14266 11.2958 2.01195 11.2958 1.87994C11.2958 1.74793 11.2697 1.61723 11.2189 1.49537C11.1681 1.37351 11.0937 1.26291 11 1.16994Z" fill="#B7BEC5"></path>
  </symbol>
  <symbol fill="none" xmlns="http://www.w3.org/2000/svg" viewBox="0 0 21 20" id="contact">
    <path d="M14.21 10.71C15.1904 9.93866 15.906 8.88092 16.2572 7.68394C16.6085 6.48697 16.5779 5.21027 16.1698 4.03147C15.7617 2.85267 14.9963 1.83039 13.9801 1.10686C12.9639 0.383322 11.7474 -0.00549316 10.5 -0.00549316C9.25255 -0.00549316 8.03611 0.383322 7.01993 1.10686C6.00374 1.83039 5.23834 2.85267 4.83021 4.03147C4.42208 5.21027 4.39151 6.48697 4.74276 7.68394C5.09401 8.88092 5.8096 9.93866 6.79 10.71C5.11007 11.383 3.64428 12.4994 2.54889 13.9399C1.45349 15.3805 0.76956 17.0913 0.569997 18.89C0.555551 19.0213 0.567113 19.1542 0.604022 19.2811C0.640931 19.4079 0.702464 19.5263 0.785108 19.6293C0.952016 19.8375 1.19478 19.9708 1.46 20C1.72521 20.0292 1.99116 19.9518 2.19932 19.7849C2.40749 19.618 2.54082 19.3752 2.57 19.11C2.78958 17.1552 3.72168 15.3498 5.18822 14.0388C6.65475 12.7278 8.5529 12.003 10.52 12.003C12.4871 12.003 14.3852 12.7278 15.8518 14.0388C17.3183 15.3498 18.2504 17.1552 18.47 19.11C18.4972 19.3557 18.6144 19.5827 18.7991 19.747C18.9838 19.9114 19.2228 20.0015 19.47 20H19.58C19.8421 19.9698 20.0817 19.8373 20.2466 19.6313C20.4114 19.4252 20.4881 19.1624 20.46 18.9C20.2595 17.0962 19.5719 15.381 18.4708 13.9382C17.3698 12.4954 15.8969 11.3795 14.21 10.71ZM10.5 10C9.70887 10 8.93551 9.76541 8.27772 9.32588C7.61992 8.88636 7.10723 8.26164 6.80448 7.53074C6.50173 6.79983 6.42251 5.99557 6.57686 5.21964C6.7312 4.44372 7.11216 3.73099 7.67157 3.17158C8.23098 2.61217 8.94371 2.2312 9.71964 2.07686C10.4956 1.92252 11.2998 2.00173 12.0307 2.30448C12.7616 2.60724 13.3863 3.11993 13.8259 3.77772C14.2654 4.43552 14.5 5.20888 14.5 6C14.5 7.06087 14.0786 8.07828 13.3284 8.82843C12.5783 9.57858 11.5609 10 10.5 10Z" fill="#ADB5BD"></path>
  </symbol>
  <symbol fill="none" xmlns="http://www.w3.org/2000/svg" viewBox="0 0 18 18" id="ellipse">
    <circle cx="9" cy="9" r="9" fill="#161515"></circle>
  </symbol>
  <symbol fill="none" xmlns="http://www.w3.org/2000/svg" viewBox="0 0 20 16" id="email">
    <path d="M17 0H3C2.20435 0 1.44129 0.316071 0.87868 0.87868C0.316071 1.44129 0 2.20435 0 3V13C0 13.7956 0.316071 14.5587 0.87868 15.1213C1.44129 15.6839 2.20435 16 3 16H17C17.7956 16 18.5587 15.6839 19.1213 15.1213C19.6839 14.5587 20 13.7956 20 13V3C20 2.20435 19.6839 1.44129 19.1213 0.87868C18.5587 0.316071 17.7956 0 17 0ZM3 2H17C17.2652 2 17.5196 2.10536 17.7071 2.29289C17.8946 2.48043 18 2.73478 18 3L10 7.88L2 3C2 2.73478 2.10536 2.48043 2.29289 2.29289C2.48043 2.10536 2.73478 2 3 2ZM18 13C18 13.2652 17.8946 13.5196 17.7071 13.7071C17.5196 13.8946 17.2652 14 17 14H3C2.73478 14 2.48043 13.8946 2.29289 13.7071C2.10536 13.5196 2 13.2652 2 13V5.28L9.48 9.85C9.63202 9.93777 9.80446 9.98397 9.98 9.98397C10.1555 9.98397 10.328 9.93777 10.48 9.85L18 5.28V13Z" fill="#ADB5BD"></path>
  </symbol>
  <symbol fill="none" xmlns="http://www.w3.org/2000/svg" viewBox="0 0 20 16" id="email--white">
    <path d="M17 0H3C2.20435 0 1.44129 0.316071 0.87868 0.87868C0.316071 1.44129 0 2.20435 0 3V13C0 13.7956 0.316071 14.5587 0.87868 15.1213C1.44129 15.6839 2.20435 16 3 16H17C17.7956 16 18.5587 15.6839 19.1213 15.1213C19.6839 14.5587 20 13.7956 20 13V3C20 2.20435 19.6839 1.44129 19.1213 0.87868C18.5587 0.316071 17.7956 0 17 0ZM3 2H17C17.2652 2 17.5196 2.10536 17.7071 2.29289C17.8946 2.48043 18 2.73478 18 3L10 7.88L2 3C2 2.73478 2.10536 2.48043 2.29289 2.29289C2.48043 2.10536 2.73478 2 3 2ZM18 13C18 13.2652 17.8946 13.5196 17.7071 13.7071C17.5196 13.8946 17.2652 14 17 14H3C2.73478 14 2.48043 13.8946 2.29289 13.7071C2.10536 13.5196 2 13.2652 2 13V5.28L9.48 9.85C9.63202 9.93777 9.80446 9.98397 9.98 9.98397C10.1555 9.98397 10.328 9.93777 10.48 9.85L18 5.28V13Z" fill="white"></path>
  </symbol>
  <symbol fill="none" xmlns="http://www.w3.org/2000/svg" viewBox="0 0 15 16" id="exit">
    <path fill-rule="evenodd" clip-rule="evenodd" d="M14.1559 1.11612C14.6441 1.60427 14.6441 2.39573 14.1559 2.88388L2.15592 14.8839C1.66776 15.372 0.876306 15.372 0.38815 14.8839C-0.100005 14.3957 -0.100005 13.6043 0.38815 13.1161L12.3882 1.11612C12.8763 0.627961 13.6678 0.627961 14.1559 1.11612Z" fill="#323131"></path>
    <path fill-rule="evenodd" clip-rule="evenodd" d="M0.38815 1.11612C0.876306 0.627961 1.66776 0.627961 2.15592 1.11612L14.1559 13.1161C14.6441 13.6043 14.6441 14.3957 14.1559 14.8839C13.6678 15.372 12.8763 15.372 12.3882 14.8839L0.38815 2.88388C-0.100005 2.39573 -0.100005 1.60427 0.38815 1.11612Z" fill="#323131"></path>
  </symbol>
  <symbol fill="none" xmlns="http://www.w3.org/2000/svg" viewBox="0 0 11 20" id="facebook">
    <path d="M9.11999 3.32003H11V0.14003C10.0897 0.045377 9.17514 -0.00135428 8.25999 2.98641e-05C5.53999 2.98641e-05 3.67999 1.66003 3.67999 4.70003V7.32003H0.609985V10.88H3.67999V20H7.35998V10.88H10.42L10.88 7.32003H7.35998V5.05003C7.35998 4.00003 7.63999 3.32003 9.11999 3.32003Z" fill="white"></path>
  </symbol>
  <symbol fill="none" xmlns="http://www.w3.org/2000/svg" viewBox="0 0 20 20" id="instagram">
    <path d="M15.34 3.46C15.1027 3.46 14.8707 3.53038 14.6733 3.66224C14.476 3.79409 14.3222 3.98151 14.2313 4.20078C14.1405 4.42005 14.1168 4.66133 14.1631 4.89411C14.2094 5.12689 14.3236 5.34071 14.4915 5.50853C14.6593 5.67635 14.8731 5.79064 15.1059 5.83694C15.3387 5.88324 15.5799 5.85948 15.7992 5.76866C16.0185 5.67783 16.2059 5.52402 16.3378 5.32668C16.4696 5.12935 16.54 4.89734 16.54 4.66C16.54 4.34174 16.4136 4.03652 16.1885 3.81147C15.9635 3.58643 15.6583 3.46 15.34 3.46ZM19.94 5.88C19.9206 5.0503 19.7652 4.2294 19.48 3.45C19.2257 2.78313 18.83 2.17928 18.32 1.68C17.8248 1.16743 17.2196 0.774176 16.55 0.53C15.7727 0.236161 14.9508 0.07721 14.12 0.0599999C13.06 -5.58794e-08 12.72 0 10 0C7.28 0 6.94 -5.58794e-08 5.88 0.0599999C5.04915 0.07721 4.22734 0.236161 3.45 0.53C2.78168 0.776649 2.17693 1.16956 1.68 1.68C1.16743 2.17518 0.774176 2.78044 0.53 3.45C0.236161 4.22734 0.07721 5.04915 0.0599999 5.88C-5.58794e-08 6.94 0 7.28 0 10C0 12.72 -5.58794e-08 13.06 0.0599999 14.12C0.07721 14.9508 0.236161 15.7727 0.53 16.55C0.774176 17.2196 1.16743 17.8248 1.68 18.32C2.17693 18.8304 2.78168 19.2234 3.45 19.47C4.22734 19.7638 5.04915 19.9228 5.88 19.94C6.94 20 7.28 20 10 20C12.72 20 13.06 20 14.12 19.94C14.9508 19.9228 15.7727 19.7638 16.55 19.47C17.2196 19.2258 17.8248 18.8326 18.32 18.32C18.8322 17.8226 19.2283 17.2182 19.48 16.55C19.7652 15.7706 19.9206 14.9497 19.94 14.12C19.94 13.06 20 12.72 20 10C20 7.28 20 6.94 19.94 5.88ZM18.14 14C18.1327 14.6348 18.0178 15.2637 17.8 15.86C17.6403 16.2952 17.3839 16.6884 17.05 17.01C16.7256 17.3405 16.3332 17.5964 15.9 17.76C15.3037 17.9778 14.6748 18.0927 14.04 18.1C13.04 18.15 12.67 18.16 10.04 18.16C7.41 18.16 7.04 18.16 6.04 18.1C5.38089 18.1123 4.72459 18.0109 4.1 17.8C3.68578 17.6281 3.31136 17.3728 3 17.05C2.66809 16.7287 2.41484 16.3352 2.26 15.9C2.01586 15.2952 1.88044 14.6519 1.86 14C1.86 13 1.8 12.63 1.8 10C1.8 7.37 1.8 7 1.86 6C1.86448 5.35106 1.98295 4.70795 2.21 4.1C2.38605 3.67791 2.65627 3.30166 3 3C3.30381 2.65617 3.67929 2.3831 4.1 2.2C4.70955 1.98004 5.352 1.86508 6 1.86C7 1.86 7.37 1.8 10 1.8C12.63 1.8 13 1.8 14 1.86C14.6348 1.86728 15.2637 1.98225 15.86 2.2C16.3144 2.36865 16.7223 2.64285 17.05 3C17.3777 3.30718 17.6338 3.68273 17.8 4.1C18.0223 4.70893 18.1373 5.35178 18.14 6C18.19 7 18.2 7.37 18.2 10C18.2 12.63 18.19 13 18.14 14ZM10 4.87C8.98581 4.87198 7.99496 5.17453 7.15265 5.73942C6.31035 6.30431 5.65438 7.1062 5.26763 8.04375C4.88089 8.98131 4.78072 10.0125 4.97979 11.0069C5.17886 12.0014 5.66824 12.9145 6.38608 13.631C7.10392 14.3474 8.01801 14.835 9.01286 15.0321C10.0077 15.2293 11.0387 15.1271 11.9755 14.7385C12.9123 14.35 13.7129 13.6924 14.2761 12.849C14.8394 12.0056 15.14 11.0142 15.14 10C15.1413 9.3251 15.0092 8.65661 14.7512 8.03296C14.4933 7.40931 14.1146 6.84281 13.6369 6.36605C13.1592 5.88929 12.5919 5.51168 11.9678 5.25493C11.3436 4.99818 10.6749 4.86736 10 4.87ZM10 13.33C9.34139 13.33 8.69757 13.1347 8.14995 12.7688C7.60234 12.4029 7.17552 11.8828 6.92348 11.2743C6.67144 10.6659 6.6055 9.99631 6.73398 9.35035C6.86247 8.70439 7.17963 8.11104 7.64533 7.64533C8.11104 7.17963 8.70439 6.86247 9.35035 6.73398C9.99631 6.6055 10.6659 6.67144 11.2743 6.92348C11.8828 7.17552 12.4029 7.60234 12.7688 8.14995C13.1347 8.69757 13.33 9.34139 13.33 10C13.33 10.4373 13.2439 10.8703 13.0765 11.2743C12.9092 11.6784 12.6639 12.0454 12.3547 12.3547C12.0454 12.6639 11.6784 12.9092 11.2743 13.0765C10.8703 13.2439 10.4373 13.33 10 13.33Z" fill="white"></path>
  </symbol>
  <symbol fill="none" xmlns="http://www.w3.org/2000/svg" viewBox="0 0 22 21" id="lift">
    <path d="M21 14H18.82C18.9364 13.6793 18.9973 13.3411 19 13V8C19 7.20435 18.6839 6.44129 18.1213 5.87868C17.5587 5.31607 16.7956 5 16 5H10C9.20435 5 8.44129 5.31607 7.87868 5.87868C7.31607 6.44129 7 7.20435 7 8V13C7.0027 13.3411 7.06358 13.6793 7.18 14H6C5.73478 14 5.48043 13.8946 5.29289 13.7071C5.10536 13.5196 5 13.2652 5 13V3C5 2.20435 4.68393 1.44129 4.12132 0.87868C3.55871 0.316071 2.79565 0 2 0H1C0.734784 0 0.48043 0.105357 0.292893 0.292893C0.105357 0.48043 0 0.734784 0 1C0 1.26522 0.105357 1.51957 0.292893 1.70711C0.48043 1.89464 0.734784 2 1 2H2C2.26522 2 2.51957 2.10536 2.70711 2.29289C2.89464 2.48043 3 2.73478 3 3V13C3.00369 13.6569 3.22288 14.2944 3.62392 14.8147C4.02497 15.335 4.58569 15.7092 5.22 15.88C5.03583 16.3305 4.96406 16.8191 5.01087 17.3036C5.05767 17.7881 5.22166 18.2539 5.48867 18.6609C5.75568 19.0678 6.11771 19.4037 6.5435 19.6395C6.96929 19.8753 7.44607 20.004 7.93269 20.0144C8.41931 20.0249 8.90116 19.9167 9.33667 19.6994C9.77217 19.482 10.1482 19.1619 10.4324 18.7668C10.7167 18.3717 10.9004 17.9133 10.968 17.4313C11.0355 16.9492 10.9847 16.458 10.82 16H14.18C14.0155 16.4531 13.9627 16.9392 14.0259 17.4171C14.0892 17.895 14.2666 18.3506 14.5433 18.7454C14.82 19.1401 15.1877 19.4624 15.6154 19.6849C16.043 19.9074 16.5179 20.0235 17 20.0235C17.4821 20.0235 17.957 19.9074 18.3846 19.6849C18.8123 19.4624 19.18 19.1401 19.4567 18.7454C19.7334 18.3506 19.9108 17.895 19.9741 17.4171C20.0373 16.9392 19.9845 16.4531 19.82 16H21C21.2652 16 21.5196 15.8946 21.7071 15.7071C21.8946 15.5196 22 15.2652 22 15C22 14.7348 21.8946 14.4804 21.7071 14.2929C21.5196 14.1054 21.2652 14 21 14ZM8 18C7.80222 18 7.60888 17.9414 7.44443 17.8315C7.27998 17.7216 7.15181 17.5654 7.07612 17.3827C7.00043 17.2 6.98063 16.9989 7.01921 16.8049C7.0578 16.6109 7.15304 16.4327 7.29289 16.2929C7.43275 16.153 7.61093 16.0578 7.80491 16.0192C7.99889 15.9806 8.19996 16.0004 8.38268 16.0761C8.56541 16.1518 8.72159 16.28 8.83147 16.4444C8.94135 16.6089 9 16.8022 9 17C9 17.2652 8.89464 17.5196 8.70711 17.7071C8.51957 17.8946 8.26522 18 8 18ZM10 14C9.73478 14 9.48043 13.8946 9.29289 13.7071C9.10536 13.5196 9 13.2652 9 13V8C9 7.73478 9.10536 7.48043 9.29289 7.29289C9.48043 7.10536 9.73478 7 10 7H16C16.2652 7 16.5196 7.10536 16.7071 7.29289C16.8946 7.48043 17 7.73478 17 8V13C17 13.2652 16.8946 13.5196 16.7071 13.7071C16.5196 13.8946 16.2652 14 16 14H10ZM17 18C16.8022 18 16.6089 17.9414 16.4444 17.8315C16.28 17.7216 16.1518 17.5654 16.0761 17.3827C16.0004 17.2 15.9806 16.9989 16.0192 16.8049C16.0578 16.6109 16.153 16.4327 16.2929 16.2929C16.4327 16.153 16.6109 16.0578 16.8049 16.0192C16.9989 15.9806 17.2 16.0004 17.3827 16.0761C17.5654 16.1518 17.7216 16.28 17.8315 16.4444C17.9414 16.6089 18 16.8022 18 17C18 17.2652 17.8946 17.5196 17.7071 17.7071C17.5196 17.8946 17.2652 18 17 18Z" fill="#B7BEC5"></path>
  </symbol>
  <symbol fill="none" xmlns="http://www.w3.org/2000/svg" viewBox="0 0 16 20" id="location">
    <path d="M8 8.79997C8.39556 8.79997 8.78224 8.68267 9.11114 8.4629C9.44004 8.24314 9.69638 7.93078 9.84776 7.56533C9.99913 7.19988 10.0387 6.79775 9.96157 6.40979C9.8844 6.02182 9.69392 5.66546 9.41421 5.38575C9.13451 5.10605 8.77814 4.91557 8.39018 4.8384C8.00222 4.76122 7.60009 4.80083 7.23463 4.95221C6.86918 5.10358 6.55682 5.35993 6.33706 5.68883C6.1173 6.01772 6 6.4044 6 6.79997C6 7.3304 6.21071 7.83911 6.58579 8.21418C6.96086 8.58925 7.46957 8.79997 8 8.79997ZM7.29 15.71C7.38296 15.8037 7.49356 15.8781 7.61542 15.9289C7.73728 15.9796 7.86799 16.0058 8 16.0058C8.13201 16.0058 8.26272 15.9796 8.38458 15.9289C8.50644 15.8781 8.61704 15.8037 8.71 15.71L12.8 11.61C13.75 10.6605 14.397 9.45065 14.6593 8.13342C14.9216 6.8162 14.7873 5.45077 14.2735 4.20986C13.7597 2.96894 12.8894 1.90828 11.7727 1.16202C10.656 0.415772 9.34309 0.0174561 8 0.0174561C6.65691 0.0174561 5.344 0.415772 4.22731 1.16202C3.11062 1.90828 2.24033 2.96894 1.72652 4.20986C1.2127 5.45077 1.07845 6.8162 1.34073 8.13342C1.60301 9.45065 2.25005 10.6605 3.2 11.61L7.29 15.71ZM3.23 6.33997C3.29833 5.62698 3.52502 4.93826 3.89352 4.32408C4.26203 3.7099 4.76305 3.18577 5.36 2.78997C6.1442 2.27506 7.06186 2.00072 8 2.00072C8.93814 2.00072 9.8558 2.27506 10.64 2.78997C11.233 3.18442 11.7311 3.70537 12.0987 4.31535C12.4663 4.92533 12.6942 5.6092 12.7659 6.31775C12.8376 7.02631 12.7514 7.74195 12.5135 8.41322C12.2756 9.08449 11.8919 9.6947 11.39 10.2L8 13.59L4.61 10.2C4.10752 9.6996 3.72293 9.0935 3.48421 8.42577C3.24548 7.75804 3.15864 7.04549 3.23 6.33997ZM15 18H1C0.734784 18 0.48043 18.1053 0.292893 18.2929C0.105357 18.4804 0 18.7347 0 19C0 19.2652 0.105357 19.5195 0.292893 19.7071C0.48043 19.8946 0.734784 20 1 20H15C15.2652 20 15.5196 19.8946 15.7071 19.7071C15.8946 19.5195 16 19.2652 16 19C16 18.7347 15.8946 18.4804 15.7071 18.2929C15.5196 18.1053 15.2652 18 15 18Z" fill="#ADB5BD"></path>
  </symbol>
  <symbol fill="none" xmlns="http://www.w3.org/2000/svg" viewBox="0 0 23 20" id="menu">
    <path d="M1.15 3.21429H21.85C22.155 3.21429 22.4475 3.0713 22.6632 2.81679C22.8788 2.56227 23 2.21708 23 1.85714C23 1.49721 22.8788 1.15201 22.6632 0.897498C22.4475 0.642985 22.155 0.5 21.85 0.5H1.15C0.845001 0.5 0.552494 0.642985 0.336827 0.897498C0.12116 1.15201 0 1.49721 0 1.85714C0 2.21708 0.12116 2.56227 0.336827 2.81679C0.552494 3.0713 0.845001 3.21429 1.15 3.21429ZM21.85 16.7857H1.15C0.845001 16.7857 0.552494 16.9287 0.336827 17.1832C0.12116 17.4377 0 17.7829 0 18.1429C0 18.5028 0.12116 18.848 0.336827 19.1025C0.552494 19.357 0.845001 19.5 1.15 19.5H21.85C22.155 19.5 22.4475 19.357 22.6632 19.1025C22.8788 18.848 23 18.5028 23 18.1429C23 17.7829 22.8788 17.4377 22.6632 17.1832C22.4475 16.9287 22.155 16.7857 21.85 16.7857ZM21.85 11.3571H1.15C0.845001 11.3571 0.552494 11.5001 0.336827 11.7546C0.12116 12.0092 0 12.3543 0 12.7143C0 13.0742 0.12116 13.4194 0.336827 13.6739C0.552494 13.9284 0.845001 14.0714 1.15 14.0714H21.85C22.155 14.0714 22.4475 13.9284 22.6632 13.6739C22.8788 13.4194 23 13.0742 23 12.7143C23 12.3543 22.8788 12.0092 22.6632 11.7546C22.4475 11.5001 22.155 11.3571 21.85 11.3571ZM21.85 5.92857H1.15C0.845001 5.92857 0.552494 6.07156 0.336827 6.32607C0.12116 6.58058 0 6.92578 0 7.28571C0 7.64565 0.12116 7.99085 0.336827 8.24536C0.552494 8.49987 0.845001 8.64286 1.15 8.64286H21.85C22.155 8.64286 22.4475 8.49987 22.6632 8.24536C22.8788 7.99085 23 7.64565 23 7.28571C23 6.92578 22.8788 6.58058 22.6632 6.32607C22.4475 6.07156 22.155 5.92857 21.85 5.92857Z" fill="black"></path>
  </symbol>
</svg>

<!-- ===================================== -->

<svg class="icon">
  <use xlink:href="#phone"></use>
</svg><svg class="icon">
  <use xlink:href="#phone--white"></use>
</svg><svg class="icon">
  <use xlink:href="#tick"></use>
</svg><svg class="icon">
  <use xlink:href="#upload"></use>
</svg><svg class="icon">
  <use xlink:href="#x(twitter)"></use>
</svg><svg class="icon">
  <use xlink:href="#arrow-down"></use>
</svg><svg class="icon">
  <use xlink:href="#contact"></use>
</svg><svg class="icon">
  <use xlink:href="#ellipse"></use>
</svg><svg class="icon">
  <use xlink:href="#email"></use>
</svg><svg class="icon">
  <use xlink:href="#email--white"></use>
</svg><svg class="icon">
  <use xlink:href="#exit"></use>
</svg><svg class="icon">
  <use xlink:href="#facebook"></use>
</svg><svg class="icon">
  <use xlink:href="#instagram"></use>
</svg><svg class="icon">
  <use xlink:href="#lift"></use>
</svg><svg class="icon">
  <use xlink:href="#location"></use>
</svg><svg class="icon">
  <use xlink:href="#menu"></use>
</svg>